<svg xmlns="http://www.w3.org/2000/svg" width="1000" height="260" viewBox="0 0 1000 260">
  <rect width="1000" height="260" fill="#ffffff"/>
  <g font-family="Arial, sans-serif" fill="#111827">
    <text x="35" y="40" font-size="24" font-weight="700">Synthetic Water Quality Review Workflow</text>
    <g font-size="15">
      <circle cx="95" cy="125" r="48" fill="#dbeafe" stroke="#2563eb"/>
      <text x="64" y="120">Simulate</text><text x="63" y="140">readings</text>
      <circle cx="260" cy="125" r="48" fill="#fef3c7" stroke="#d97706"/>
      <text x="230" y="120">Detect</text><text x="223" y="140">anomalies</text>
      <circle cx="425" cy="125" r="48" fill="#fee2e2" stroke="#dc2626"/>
      <text x="392" y="120">Score</text><text x="381" y="140">patterns</text>
      <circle cx="590" cy="125" r="48" fill="#ede9fe" stroke="#7c3aed"/>
      <text x="562" y="120">Assess</text><text x="568" y="140">risk</text>
      <circle cx="755" cy="125" r="48" fill="#dcfce7" stroke="#16a34a"/>
      <text x="726" y="120">Human</text><text x="724" y="140">review</text>
      <circle cx="920" cy="125" r="48" fill="#e0f2fe" stroke="#0284c7"/>
      <text x="888" y="120">Audit</text><text x="887" y="140">report</text>
    </g>
    <path d="M143 125 H212" stroke="#374151" stroke-width="3" marker-end="url(#arrow)"/>
    <path d="M308 125 H377" stroke="#374151" stroke-width="3" marker-end="url(#arrow)"/>
    <path d="M473 125 H542" stroke="#374151" stroke-width="3" marker-end="url(#arrow)"/>
    <path d="M638 125 H707" stroke="#374151" stroke-width="3" marker-end="url(#arrow)"/>
    <path d="M803 125 H872" stroke="#374151" stroke-width="3" marker-end="url(#arrow)"/>
  </g>
  <defs><marker id="arrow" markerWidth="10" markerHeight="10" refX="7" refY="3" orient="auto"><path d="M0,0 L0,6 L8,3 z" fill="#374151"/></marker></defs>
</svg>
